<svg width="24" height="24" viewBox="0 0 24 24" fill="none" xmlns="http://www.w3.org/2000/svg">
<path fill-rule="evenodd" clip-rule="evenodd" d="M2 4.85714C2 4.09938 2.30102 3.37266 2.83684 2.83684C3.37266 2.30102 4.09938 2 4.85714 2H16.2857C17.0435 2 17.7702 2.30102 18.306 2.83684C18.8418 3.37266 19.1429 4.09938 19.1429 4.85714V19.1429C19.1429 19.9006 19.4439 20.6273 19.9797 21.1632C20.5155 21.699 21.2422 22 22 22H4.85714C4.09938 22 3.37266 21.699 2.83684 21.1632C2.30102 20.6273 2 19.9006 2 19.1429V4.85714ZM6.28571 6.28571H14.8571V12H6.28571V6.28571Z" fill="#6672F2"/>
<path fill-rule="evenodd" clip-rule="evenodd" d="M15 15H7V14H15V15Z" fill="white"/>
</svg>
