<svg width="21" height="18" viewBox="0 0 21 18" fill="none" xmlns="http://www.w3.org/2000/svg">
<path d="M18.8672 0.982178H2.86719C2.33675 0.982178 1.82805 1.19524 1.45297 1.5745C1.0779 1.95376 0.867188 2.46814 0.867188 3.0045V15.1384C0.867188 15.6748 1.0779 16.1892 1.45297 16.5684C1.82805 16.9477 2.33675 17.1607 2.86719 17.1607H18.8672C19.3976 17.1607 19.9063 16.9477 20.2814 16.5684C20.6565 16.1892 20.8672 15.6748 20.8672 15.1384V3.0045C20.8672 2.46814 20.6565 1.95376 20.2814 1.5745C19.9063 1.19524 19.3976 0.982178 18.8672 0.982178ZM18.8672 5.73463L10.8672 11.1282L2.86719 5.73463V3.30481L10.8672 8.69733L18.8672 3.30481V5.73463Z" fill="#7A78E8"/>
</svg>
