<svg width="20" height="20" viewBox="0 0 20 20" fill="none" xmlns="http://www.w3.org/2000/svg">
<path d="M19.8827 10.0715C19.8778 12.4802 19.0036 14.8042 17.4241 16.6073C15.8447 18.4103 13.6686 19.5684 11.3045 19.864C11.2518 19.8692 11.1985 19.8633 11.1481 19.8468C11.0977 19.8302 11.0512 19.8033 11.0116 19.7676C10.972 19.732 10.9401 19.6885 10.9179 19.6398C10.8957 19.5912 10.8837 19.5384 10.8827 19.4848V12.3466H13.1327C13.2352 12.3468 13.3367 12.3257 13.4309 12.2847C13.5251 12.2437 13.61 12.1835 13.6803 12.108C13.7506 12.0325 13.8048 11.9432 13.8396 11.8456C13.8744 11.7481 13.8891 11.6443 13.8827 11.5408C13.8661 11.3447 13.7765 11.1623 13.6321 11.0304C13.4877 10.8984 13.2992 10.8268 13.1045 10.8299H10.8827V8.55476C10.8827 8.1525 11.0407 7.76671 11.322 7.48227C11.6033 7.19782 11.9848 7.03802 12.3827 7.03802H13.8827C13.9852 7.03823 14.0867 7.01715 14.1809 6.97611C14.2751 6.93507 14.36 6.87493 14.4303 6.79941C14.5006 6.72389 14.5548 6.6346 14.5896 6.53705C14.6244 6.43949 14.6391 6.33576 14.6327 6.23225C14.6161 6.03616 14.5265 5.85372 14.3821 5.72177C14.2377 5.58981 14.0492 5.51817 13.8545 5.52128H12.3827C11.587 5.52128 10.824 5.84088 10.2613 6.40977C9.69873 6.97866 9.38266 7.75023 9.38266 8.55476V10.8299H7.13266C7.0301 10.8297 6.92858 10.8507 6.83439 10.8918C6.7402 10.9328 6.65534 10.993 6.58504 11.0685C6.51475 11.144 6.46052 11.2333 6.42571 11.3308C6.3909 11.4284 6.37625 11.5321 6.38266 11.6356C6.39925 11.8317 6.48879 12.0142 6.63321 12.1461C6.77763 12.2781 6.96617 12.3497 7.16079 12.3466H9.38266V19.4848C9.38293 19.5379 9.37213 19.5905 9.35099 19.6392C9.32984 19.6879 9.29881 19.7315 9.25992 19.7672C9.22102 19.803 9.17513 19.8301 9.12521 19.8467C9.07529 19.8634 9.02246 19.8693 8.97016 19.864C4.02016 19.2573 0.195162 14.9061 0.392037 9.7018C0.502552 7.13166 1.60221 4.70701 3.45629 2.94539C5.31036 1.18377 7.77198 0.224726 10.3157 0.272976C12.8594 0.321227 15.2837 1.37295 17.0712 3.20364C18.8586 5.03434 19.8676 7.49899 19.8827 10.0715Z" fill="#7A78E8"/>
</svg>
