<svg width="27" height="28" viewBox="0 0 27 28" fill="none" xmlns="http://www.w3.org/2000/svg">
<path d="M26.1577 14.3001C26.1577 13.4223 26.0807 12.5889 25.9488 11.7778H13.5215V16.7889H20.6369C20.318 18.4334 19.3832 19.8223 17.9975 20.7667V24.1001H22.2426C24.728 21.7778 26.1577 18.3556 26.1577 14.3001Z" fill="#4285F4"/>
<path d="M13.5216 27.3333C17.0848 27.3333 20.0651 26.1333 22.2427 24.1L17.9976 20.7667C16.8099 21.5667 15.3032 22.0555 13.5216 22.0555C10.0793 22.0555 7.16497 19.7111 6.1202 16.5444H1.74316V19.9778C3.90969 24.3333 8.36371 27.3333 13.5216 27.3333Z" fill="#34A853"/>
<path d="M6.11995 16.5444C5.84501 15.7444 5.70204 14.8889 5.70204 14C5.70204 13.1111 5.85601 12.2555 6.11995 11.4555V8.02222H1.74291C0.841105 9.82222 0.324219 11.8444 0.324219 14C0.324219 16.1555 0.841105 18.1778 1.74291 19.9778L6.11995 16.5444Z" fill="#FBBC05"/>
<path d="M13.5216 5.94453C15.4682 5.94453 17.2058 6.6223 18.5805 7.94453L22.3416 4.14453C20.0651 1.98897 17.0848 0.666748 13.5216 0.666748C8.36371 0.666748 3.90969 3.66675 1.74316 8.0223L6.1202 11.4556C7.16498 8.28897 10.0793 5.94453 13.5216 5.94453Z" fill="#EA4335"/>
</svg>
