<svg width="143" height="134" viewBox="0 0 143 134" fill="none" xmlns="http://www.w3.org/2000/svg">
<path d="M120.243 106.219C119.716 104.104 116.102 97.8815 115.051 95.7593C114.005 93.6335 108.232 87.7607 106.224 86.6517C104.212 85.5427 97.1273 80.2226 97.1273 80.2226C97.1273 80.2226 97.9931 79.6257 99.6142 78.6383C101.235 77.6509 101.464 75.8935 100.535 75.3814C99.6069 74.8693 93.6051 77.3414 93.6051 77.3414L92.4814 76.4535C92.4814 76.4535 95.2704 75.9082 97.4257 74.0698C99.5811 72.235 99.6621 70.8644 98.9658 70.5476C98.2658 70.2307 93.4688 71.616 92.0909 71.7966C90.8566 71.9587 88.6534 73.4803 88.215 73.7934C88.145 73.7455 87.9313 73.6608 87.386 73.5024C86.1112 73.134 85.2712 73.6792 84.8733 74.4014C84.4754 75.1235 85.0907 76.203 85.0907 76.203L82.5632 78.7083L84.7222 72.235C84.7222 72.235 86.8776 70.4002 88.7381 68.7349C90.5987 67.0696 91.295 63.4884 89.8987 63.459C88.5023 63.4295 83.0496 67.3459 82.3974 67.7954C81.7453 68.2449 79.7521 72.5887 79.7521 72.5887C79.7521 72.5887 78.8052 67.3606 76.5468 64.5016C74.292 61.6426 73.4482 63.5326 73.4482 63.5326L76.8562 78.9294L83.2706 96.7836C83.8564 98.4083 85.0133 99.7679 86.5239 100.601L94.5004 105C96.1878 105.928 102.212 110.021 105.811 112.409C106.456 112.836 104.857 116.108 102.971 119.464C100.528 123.815 102.12 129.327 106.489 131.737C112.259 134.92 119.384 131.033 119.826 124.456C120.353 116.734 120.762 108.301 120.243 106.219ZM87.9055 82.4995C87.8171 82.7169 87.5334 83.9069 87.5334 83.9069C87.5334 83.9069 86.4096 82.8716 86.9255 82.2637C87.4413 81.6521 88.2444 80.6057 88.2444 80.6057L89.0955 81.0773C89.0955 81.0737 87.9939 82.2821 87.9055 82.4995ZM91.9066 87.4328L91.6524 85.5796L92.6619 84.0985L97.3668 88.0223C97.3668 88.0223 94.4083 88.5086 91.9066 87.4328Z" stroke="black" stroke-miterlimit="10" stroke-linecap="round" stroke-linejoin="round"/>
<path d="M97.1272 80.2227L94.3014 81.689L91.6523 85.576L92.415 91.1393C92.415 91.1393 107.329 97.1852 110.829 104.524" stroke="black" stroke-miterlimit="10" stroke-linecap="round" stroke-linejoin="round"/>
<path d="M86.1299 94.1275C86.1299 94.1275 87.3089 83.583 87.9057 82.4998C88.5026 81.4166 92.3748 77.8281 93.609 77.3418" stroke="black" stroke-miterlimit="10" stroke-linecap="round" stroke-linejoin="round"/>
<path d="M88.1341 73.8516L85.0872 76.2058L82.5598 78.7112L81.845 79.4001C81.4361 79.7907 81.2187 80.336 81.2408 80.9033L81.5392 88.3714" stroke="black" stroke-miterlimit="10" stroke-linecap="round" stroke-linejoin="round"/>
<path d="M79.7522 72.5918L77.7222 76.2761" stroke="black" stroke-miterlimit="10" stroke-linecap="round" stroke-linejoin="round"/>
<path d="M92.4848 76.4551L90.7826 77.2804L88.2441 80.6036" stroke="black" stroke-miterlimit="10" stroke-linecap="round" stroke-linejoin="round"/>
<path d="M63.1098 46.248L59.9966 49.365" stroke="black" stroke-miterlimit="10" stroke-linecap="round" stroke-linejoin="round"/>
<path d="M77.8842 31.4766L74.771 34.5898" stroke="black" stroke-miterlimit="10" stroke-linecap="round" stroke-linejoin="round"/>
<path d="M74.7671 46.248L77.884 49.365" stroke="black" stroke-miterlimit="10" stroke-linecap="round" stroke-linejoin="round"/>
<path d="M59.9971 31.4766L63.1103 34.5898" stroke="black" stroke-miterlimit="10" stroke-linecap="round" stroke-linejoin="round"/>
<path d="M56.8799 40.4192C56.8799 40.4192 60.1294 39.6603 63.1616 39.115C64.068 38.9492 64.8859 38.5513 65.5601 37.9876C64.8969 37.1144 64.2817 36.197 63.9464 35.4233C64.709 35.7549 65.608 36.3554 66.4701 37.0076C66.9749 36.2965 67.3065 35.4528 67.4023 34.5391C67.6786 31.8311 68.1502 28.7768 68.946 26.7578C69.7455 28.7805 70.2134 31.8385 70.4897 34.5501C70.5892 35.5302 70.9613 36.4254 71.5287 37.1697C72.693 36.3407 73.9382 35.4233 73.9382 35.4233C73.6398 36.1123 72.903 37.1328 72.2803 37.9581C72.9619 38.5402 73.7982 38.9566 74.7267 39.126C77.7294 39.6713 81.0048 40.4192 81.0048 40.4192C79.1847 41.1377 77.0515 41.5909 75.0104 41.8745C74.0377 42.0109 73.1535 42.4051 72.4277 42.9835C73.0503 43.8162 73.6251 44.682 73.9419 45.4152C73.2088 45.0983 72.3503 44.5272 71.5213 43.9083C70.9503 44.6562 70.5708 45.5552 70.4639 46.5463C70.1839 49.1916 69.7197 52.1243 68.946 54.0844C68.1723 52.1243 67.7081 49.1916 67.4281 46.5463C67.3212 45.5368 66.9307 44.623 66.3412 43.8678C65.5417 44.4646 64.5985 45.1352 63.9501 45.4189C63.9501 45.4189 64.8048 44.2472 65.6154 43.1088C64.8601 42.464 63.9206 42.0256 62.8816 41.8782C60.8331 41.5909 58.6999 41.1377 56.8799 40.4192Z" stroke="black" stroke-miterlimit="10" stroke-linecap="round" stroke-linejoin="round"/>
<path d="M132.803 103.971C133.12 104.096 133.462 104.203 133.816 104.291C135.595 104.737 136.925 106.214 137.261 108.016C137.36 108.554 137.489 109.055 137.644 109.456C137.802 109.055 137.928 108.554 138.027 108.016C138.366 106.214 139.692 104.737 141.472 104.291C141.826 104.203 142.165 104.096 142.485 103.971C142.485 103.971 142.168 103.897 141.708 103.801C139.84 103.399 138.388 101.915 138.049 100.036C137.946 99.4573 137.813 98.9157 137.644 98.4883C137.474 98.9157 137.342 99.4573 137.239 100.032C136.903 101.907 135.455 103.392 133.595 103.794C133.123 103.893 132.803 103.971 132.803 103.971Z" stroke="black" stroke-miterlimit="10" stroke-linecap="round" stroke-linejoin="round"/>
<path d="M72.3392 128.818C76.4902 128.818 79.8552 125.006 79.8552 120.304C79.8552 115.601 76.4902 111.789 72.3392 111.789C68.1883 111.789 64.8232 115.601 64.8232 120.304C64.8232 125.006 68.1883 128.818 72.3392 128.818Z" stroke="black" stroke-miterlimit="10" stroke-linecap="round" stroke-linejoin="round"/>
<path d="M33.4995 82.6164C33.2858 78.4752 32.6521 70.4139 30.8873 65.9375C29.1225 70.4103 28.4925 78.4752 28.2751 82.6164C24.4545 82.8117 13.8584 85.2286 13.8584 85.2286C18.3312 86.9933 24.1339 87.6234 28.2751 87.8407C28.4888 91.9819 29.1225 100.043 30.8873 104.52C32.6521 100.047 33.2821 91.9819 33.4995 87.8407C37.6406 87.627 43.4397 86.9933 47.9162 85.2286C47.9125 85.2286 37.6406 82.8301 33.4995 82.6164Z" stroke="black" stroke-miterlimit="10" stroke-linecap="round" stroke-linejoin="round"/>
<path d="M1 85.2285H10.6934" stroke="black" stroke-miterlimit="10" stroke-linecap="round" stroke-linejoin="round"/>
<path d="M51.0811 85.2285H60.7745" stroke="black" stroke-miterlimit="10" stroke-linecap="round" stroke-linejoin="round"/>
<path d="M30.8872 55.3359V63.3456" stroke="black" stroke-miterlimit="10" stroke-linecap="round" stroke-linejoin="round"/>
<path d="M30.8872 107.104V115.113" stroke="black" stroke-miterlimit="10" stroke-linecap="round" stroke-linejoin="round"/>
<path d="M14.9453 69.2812L19.956 74.2919" stroke="black" stroke-miterlimit="10" stroke-linecap="round" stroke-linejoin="round"/>
<path d="M11.1211 65.4609L13.3354 67.6752" stroke="black" stroke-miterlimit="10" stroke-linecap="round" stroke-linejoin="round"/>
<path d="M46.8627 101.198L41.8521 96.1875" stroke="black" stroke-miterlimit="10" stroke-linecap="round" stroke-linejoin="round"/>
<path d="M50.683 105.019L48.4688 102.809" stroke="black" stroke-miterlimit="10" stroke-linecap="round" stroke-linejoin="round"/>
<path d="M19.9562 96.1602L14.7061 101.407" stroke="black" stroke-miterlimit="10" stroke-linecap="round" stroke-linejoin="round"/>
<path d="M46.8627 69.2812L41.8521 74.2919" stroke="black" stroke-miterlimit="10" stroke-linecap="round" stroke-linejoin="round"/>
<path d="M50.683 65.4609L48.4688 67.6752" stroke="black" stroke-miterlimit="10" stroke-linecap="round" stroke-linejoin="round"/>
<path d="M11.1211 105.019L13.3354 102.809" stroke="black" stroke-miterlimit="10" stroke-linecap="round" stroke-linejoin="round"/>
<path d="M9.83496 76.2578L16.662 79.1684" stroke="black" stroke-miterlimit="10" stroke-linecap="round" stroke-linejoin="round"/>
<path d="M45.1123 91.2871L51.9393 94.1977" stroke="black" stroke-miterlimit="10" stroke-linecap="round" stroke-linejoin="round"/>
<path d="M39.8547 64.1758L36.9478 71.0028" stroke="black" stroke-miterlimit="10" stroke-linecap="round" stroke-linejoin="round"/>
<path d="M24.8264 99.4492L21.9194 106.276" stroke="black" stroke-miterlimit="10" stroke-linecap="round" stroke-linejoin="round"/>
<path d="M22.3428 63.998L25.1134 70.884" stroke="black" stroke-miterlimit="10" stroke-linecap="round" stroke-linejoin="round"/>
<path d="M36.6602 99.5664L39.4308 106.452" stroke="black" stroke-miterlimit="10" stroke-linecap="round" stroke-linejoin="round"/>
<path d="M52.1123 76.6836L45.23 79.4542" stroke="black" stroke-miterlimit="10" stroke-linecap="round" stroke-linejoin="round"/>
<path d="M16.5439 90.998L9.66162 93.7686" stroke="black" stroke-miterlimit="10" stroke-linecap="round" stroke-linejoin="round"/>
<path d="M93.8076 16.7676H106.658" stroke="black" stroke-miterlimit="10" stroke-linecap="round" stroke-linejoin="round"/>
<path d="M112.498 16.7676H125.349" stroke="black" stroke-miterlimit="10" stroke-linecap="round" stroke-linejoin="round"/>
<path d="M109.58 1V12.963" stroke="black" stroke-miterlimit="10" stroke-linecap="round" stroke-linejoin="round"/>
<path d="M109.58 20.5781V32.5374" stroke="black" stroke-miterlimit="10" stroke-linecap="round" stroke-linejoin="round"/>
<path d="M101.165 8.35742L103.81 11.0028" stroke="black" stroke-miterlimit="10" stroke-linecap="round" stroke-linejoin="round"/>
<path d="M99.1499 6.3418L100.318 7.50972" stroke="black" stroke-miterlimit="10" stroke-linecap="round" stroke-linejoin="round"/>
<path d="M118.006 25.1981L115.361 22.5527" stroke="black" stroke-miterlimit="10" stroke-linecap="round" stroke-linejoin="round"/>
<path d="M120.021 27.2128L118.854 26.0449" stroke="black" stroke-miterlimit="10" stroke-linecap="round" stroke-linejoin="round"/>
<path d="M103.81 22.5391L101.043 25.306" stroke="black" stroke-miterlimit="10" stroke-linecap="round" stroke-linejoin="round"/>
<path d="M118.006 8.35742L115.361 11.0028" stroke="black" stroke-miterlimit="10" stroke-linecap="round" stroke-linejoin="round"/>
<path d="M120.021 6.3418L118.854 7.50972" stroke="black" stroke-miterlimit="10" stroke-linecap="round" stroke-linejoin="round"/>
<path d="M99.1499 27.2128L100.318 26.0449" stroke="black" stroke-miterlimit="10" stroke-linecap="round" stroke-linejoin="round"/>
<path d="M98.4717 12.041L102.075 13.5737" stroke="black" stroke-miterlimit="10" stroke-linecap="round" stroke-linejoin="round"/>
<path d="M117.081 19.9707L120.684 21.5034" stroke="black" stroke-miterlimit="10" stroke-linecap="round" stroke-linejoin="round"/>
<path d="M114.311 5.66602L112.774 9.26559" stroke="black" stroke-miterlimit="10" stroke-linecap="round" stroke-linejoin="round"/>
<path d="M106.382 24.2754L104.846 27.8786" stroke="black" stroke-miterlimit="10" stroke-linecap="round" stroke-linejoin="round"/>
<path d="M105.071 5.56836L106.533 9.20109" stroke="black" stroke-miterlimit="10" stroke-linecap="round" stroke-linejoin="round"/>
<path d="M112.624 24.3359L114.086 27.9687" stroke="black" stroke-miterlimit="10" stroke-linecap="round" stroke-linejoin="round"/>
<path d="M120.777 12.2637L117.144 13.7227" stroke="black" stroke-miterlimit="10" stroke-linecap="round" stroke-linejoin="round"/>
<path d="M102.013 19.8164L98.3799 21.2791" stroke="black" stroke-miterlimit="10" stroke-linecap="round" stroke-linejoin="round"/>
<path d="M109.581 25.7953C113.98 25.7953 117.546 21.754 117.546 16.7688C117.546 11.7835 113.98 7.74219 109.581 7.74219C105.182 7.74219 101.615 11.7835 101.615 16.7688C101.615 21.754 105.182 25.7953 109.581 25.7953Z" stroke="black" stroke-miterlimit="10" stroke-linecap="round" stroke-linejoin="round"/>
</svg>
