<svg width="144" height="134" viewBox="0 0 144 134" fill="none" xmlns="http://www.w3.org/2000/svg">
<path d="M24.1394 124.458C24.5852 131.035 31.707 134.922 37.4766 131.739C41.8462 129.329 43.4378 123.817 40.9951 119.466C39.1087 116.106 37.5098 112.838 38.1545 112.411C41.7541 110.023 47.7779 105.93 49.4653 105.002L57.4419 100.602C58.9561 99.7661 60.113 98.4103 60.6951 96.7855L67.1095 78.9313L70.5175 63.5346C70.5175 63.5346 69.6775 61.6445 67.419 64.5036C65.1642 67.3626 64.2137 72.5906 64.2137 72.5906C64.2137 72.5906 62.2204 68.2431 61.5683 67.7973C60.9162 67.3479 55.4634 63.4314 54.0671 63.4609C52.6707 63.4904 53.3707 67.0715 55.2276 68.7368C57.0882 70.4021 59.2435 72.2369 59.2435 72.2369L61.4025 78.7103L58.8751 76.2049C58.8751 76.2049 59.4904 75.1254 59.0925 74.4033C58.6945 73.6812 57.8545 73.1359 56.5797 73.5043C56.0345 73.6628 55.8208 73.7475 55.7508 73.7954C55.3087 73.4822 53.1091 71.9606 51.8749 71.7985C50.497 71.618 45.6963 70.229 45 70.5495C44.2999 70.8664 44.3847 72.2333 46.54 74.0717C48.6953 75.9065 51.4844 76.4555 51.4844 76.4555L50.3606 77.3434C50.3606 77.3434 44.3589 74.8712 43.4305 75.3833C42.502 75.8955 42.7304 77.6529 44.3515 78.6403C45.9726 79.6277 46.8384 80.2245 46.8384 80.2245C46.8384 80.2245 39.7535 85.5447 37.7419 86.6537C35.7302 87.7626 29.9606 93.6354 28.9143 95.7613C27.8679 97.8871 24.2536 104.11 23.7231 106.221C23.2072 108.299 23.6162 116.732 24.1394 124.458ZM54.8739 81.0719L55.725 80.6003C55.725 80.6003 56.5245 81.6467 57.044 82.2583C57.5598 82.8699 56.4361 83.9015 56.4361 83.9015C56.4361 83.9015 56.1524 82.7114 56.064 82.4941C55.9755 82.2804 54.8739 81.0719 54.8739 81.0719ZM46.6026 88.0205L51.3075 84.0967L52.317 85.5778L52.0628 87.431C49.5612 88.5069 46.6026 88.0205 46.6026 88.0205Z" stroke="black" stroke-miterlimit="10" stroke-linecap="round" stroke-linejoin="round"/>
<path d="M46.8421 80.2207L49.668 81.6871L52.317 85.574L51.5543 91.1373C51.5543 91.1373 36.6402 97.1833 33.1401 104.522" stroke="black" stroke-miterlimit="10" stroke-linecap="round" stroke-linejoin="round"/>
<path d="M57.8395 94.1256C57.8395 94.1256 56.6605 83.5811 56.0637 82.4979C55.4668 81.4147 51.5946 77.8262 50.3604 77.3398" stroke="black" stroke-miterlimit="10" stroke-linecap="round" stroke-linejoin="round"/>
<path d="M55.8354 73.8496L58.8824 76.2039L61.4098 78.7092L62.1246 79.3982C62.5335 79.7887 62.7509 80.334 62.7288 80.9014L62.4304 88.3695" stroke="black" stroke-miterlimit="10" stroke-linecap="round" stroke-linejoin="round"/>
<path d="M64.2173 72.5898L66.2473 76.2742" stroke="black" stroke-miterlimit="10" stroke-linecap="round" stroke-linejoin="round"/>
<path d="M51.4844 76.4512L53.1865 77.2765L55.725 80.5997" stroke="black" stroke-miterlimit="10" stroke-linecap="round" stroke-linejoin="round"/>
<path d="M80.8594 46.248L83.9726 49.365" stroke="black" stroke-miterlimit="10" stroke-linecap="round" stroke-linejoin="round"/>
<path d="M66.0854 31.4766L69.1987 34.5898" stroke="black" stroke-miterlimit="10" stroke-linecap="round" stroke-linejoin="round"/>
<path d="M69.1987 46.248L66.0854 49.365" stroke="black" stroke-miterlimit="10" stroke-linecap="round" stroke-linejoin="round"/>
<path d="M83.9726 31.4766L80.8594 34.5898" stroke="black" stroke-miterlimit="10" stroke-linecap="round" stroke-linejoin="round"/>
<path d="M87.0897 40.4192C87.0897 40.4192 83.8402 39.6603 80.808 39.115C79.9016 38.9492 79.0837 38.5513 78.4095 37.9876C79.0727 37.1144 79.6879 36.197 80.0232 35.4233C79.2606 35.7549 78.3616 36.3554 77.4995 37.0076C76.9947 36.2965 76.6631 35.4528 76.5673 34.5391C76.291 31.8311 75.8194 28.7768 75.0236 26.7578C74.2241 28.7805 73.7562 31.8385 73.4799 34.5501C73.3804 35.5302 73.0083 36.4254 72.4409 37.1697C71.2767 36.3407 70.0314 35.4233 70.0314 35.4233C70.3298 36.1123 71.0666 37.1328 71.6893 37.9581C71.0077 38.5402 70.1714 38.9566 69.2429 39.126C66.2402 39.6713 62.9648 40.4192 62.9648 40.4192C64.7849 41.1377 66.9181 41.5909 68.9592 41.8745C69.9319 42.0109 70.8161 42.4051 71.5419 42.9835C70.9193 43.8162 70.3445 44.682 70.0277 45.4152C70.7608 45.0983 71.6193 44.5272 72.4483 43.9083C73.0193 44.6562 73.3988 45.5552 73.5057 46.5463C73.7857 49.1916 74.2499 52.1243 75.0236 54.0844C75.7973 52.1243 76.2615 49.1916 76.5415 46.5463C76.6484 45.5368 77.0389 44.623 77.6284 43.8678C78.4279 44.4646 79.3711 45.1352 80.0195 45.4189C80.0195 45.4189 79.1648 44.2472 78.3542 43.1088C79.1095 42.464 80.049 42.0256 81.088 41.8782C83.1365 41.5909 85.2697 41.1377 87.0897 40.4192Z" stroke="black" stroke-miterlimit="10" stroke-linecap="round" stroke-linejoin="round"/>
<path d="M10.3751 103.794C8.51085 103.388 7.06659 101.907 6.73132 100.032C6.62816 99.4573 6.49553 98.912 6.32606 98.4883C6.15658 98.9157 6.02393 99.4609 5.92077 100.036C5.58181 101.918 4.13019 103.403 2.26225 103.801C1.79802 103.901 1.48486 103.971 1.48486 103.971C1.80171 104.096 2.14436 104.203 2.49805 104.291C4.27757 104.737 5.60762 106.214 5.94289 108.016C6.04237 108.554 6.17131 109.055 6.32606 109.456C6.48448 109.055 6.60974 108.554 6.70922 108.016C7.04817 106.214 8.37454 104.737 10.1541 104.291C10.5078 104.203 10.8467 104.096 11.1672 103.971C11.1672 103.971 10.8467 103.893 10.3751 103.794Z" stroke="black" stroke-miterlimit="10" stroke-linecap="round" stroke-linejoin="round"/>
<path d="M71.6303 128.818C75.7812 128.818 79.1462 125.006 79.1462 120.304C79.1462 115.601 75.7812 111.789 71.6303 111.789C67.4793 111.789 64.1143 115.601 64.1143 120.304C64.1143 125.006 67.4793 128.818 71.6303 128.818Z" stroke="black" stroke-miterlimit="10" stroke-linecap="round" stroke-linejoin="round"/>
<path d="M115.695 82.6164C115.481 78.4752 114.847 70.4139 113.083 65.9375C111.318 70.4103 110.688 78.4752 110.47 82.6164C106.65 82.8117 96.0537 85.2286 96.0537 85.2286C100.526 86.9933 106.329 87.6234 110.47 87.8407C110.684 91.9819 111.318 100.043 113.083 104.52C114.847 100.047 115.477 91.9819 115.695 87.8407C119.836 87.627 125.635 86.9933 130.112 85.2286C130.108 85.2286 119.836 82.8301 115.695 82.6164Z" stroke="black" stroke-miterlimit="10" stroke-linecap="round" stroke-linejoin="round"/>
<path d="M83.1953 85.2285H92.8887" stroke="black" stroke-miterlimit="10" stroke-linecap="round" stroke-linejoin="round"/>
<path d="M133.276 85.2285H142.97" stroke="black" stroke-miterlimit="10" stroke-linecap="round" stroke-linejoin="round"/>
<path d="M113.083 55.3359V63.3456" stroke="black" stroke-miterlimit="10" stroke-linecap="round" stroke-linejoin="round"/>
<path d="M113.083 107.104V115.113" stroke="black" stroke-miterlimit="10" stroke-linecap="round" stroke-linejoin="round"/>
<path d="M97.1406 69.2812L102.151 74.2919" stroke="black" stroke-miterlimit="10" stroke-linecap="round" stroke-linejoin="round"/>
<path d="M93.3198 65.4609L95.5304 67.6752" stroke="black" stroke-miterlimit="10" stroke-linecap="round" stroke-linejoin="round"/>
<path d="M129.058 101.198L124.047 96.1875" stroke="black" stroke-miterlimit="10" stroke-linecap="round" stroke-linejoin="round"/>
<path d="M132.878 105.019L130.664 102.809" stroke="black" stroke-miterlimit="10" stroke-linecap="round" stroke-linejoin="round"/>
<path d="M102.151 96.1602L96.9048 101.407" stroke="black" stroke-miterlimit="10" stroke-linecap="round" stroke-linejoin="round"/>
<path d="M129.058 69.2812L124.047 74.2919" stroke="black" stroke-miterlimit="10" stroke-linecap="round" stroke-linejoin="round"/>
<path d="M132.878 65.4609L130.664 67.6752" stroke="black" stroke-miterlimit="10" stroke-linecap="round" stroke-linejoin="round"/>
<path d="M93.3198 105.019L95.5304 102.809" stroke="black" stroke-miterlimit="10" stroke-linecap="round" stroke-linejoin="round"/>
<path d="M92.0303 76.2578L98.8573 79.1684" stroke="black" stroke-miterlimit="10" stroke-linecap="round" stroke-linejoin="round"/>
<path d="M127.308 91.2871L134.135 94.1977" stroke="black" stroke-miterlimit="10" stroke-linecap="round" stroke-linejoin="round"/>
<path d="M122.05 64.1758L119.143 71.0028" stroke="black" stroke-miterlimit="10" stroke-linecap="round" stroke-linejoin="round"/>
<path d="M107.022 99.4492L104.115 106.276" stroke="black" stroke-miterlimit="10" stroke-linecap="round" stroke-linejoin="round"/>
<path d="M104.539 63.998L107.309 70.884" stroke="black" stroke-miterlimit="10" stroke-linecap="round" stroke-linejoin="round"/>
<path d="M118.856 99.5664L121.627 106.452" stroke="black" stroke-miterlimit="10" stroke-linecap="round" stroke-linejoin="round"/>
<path d="M134.308 76.6836L127.425 79.4542" stroke="black" stroke-miterlimit="10" stroke-linecap="round" stroke-linejoin="round"/>
<path d="M98.7392 90.998L91.8569 93.7686" stroke="black" stroke-miterlimit="10" stroke-linecap="round" stroke-linejoin="round"/>
<path d="M18.6206 16.7676H31.4715" stroke="black" stroke-miterlimit="10" stroke-linecap="round" stroke-linejoin="round"/>
<path d="M37.3076 16.7676H50.1622" stroke="black" stroke-miterlimit="10" stroke-linecap="round" stroke-linejoin="round"/>
<path d="M34.3896 1V12.963" stroke="black" stroke-miterlimit="10" stroke-linecap="round" stroke-linejoin="round"/>
<path d="M34.3896 20.5781V32.5374" stroke="black" stroke-miterlimit="10" stroke-linecap="round" stroke-linejoin="round"/>
<path d="M25.9785 8.35742L28.6239 11.0028" stroke="black" stroke-miterlimit="10" stroke-linecap="round" stroke-linejoin="round"/>
<path d="M23.9629 6.3418L25.1308 7.50972" stroke="black" stroke-miterlimit="10" stroke-linecap="round" stroke-linejoin="round"/>
<path d="M42.8192 25.1981L40.1738 22.5527" stroke="black" stroke-miterlimit="10" stroke-linecap="round" stroke-linejoin="round"/>
<path d="M44.8344 27.2128L43.6665 26.0449" stroke="black" stroke-miterlimit="10" stroke-linecap="round" stroke-linejoin="round"/>
<path d="M28.6236 22.5391L25.853 25.306" stroke="black" stroke-miterlimit="10" stroke-linecap="round" stroke-linejoin="round"/>
<path d="M42.8192 8.35742L40.1738 11.0028" stroke="black" stroke-miterlimit="10" stroke-linecap="round" stroke-linejoin="round"/>
<path d="M44.8344 6.3418L43.6665 7.50972" stroke="black" stroke-miterlimit="10" stroke-linecap="round" stroke-linejoin="round"/>
<path d="M23.9629 27.2128L25.1308 26.0449" stroke="black" stroke-miterlimit="10" stroke-linecap="round" stroke-linejoin="round"/>
<path d="M23.2852 12.041L26.8884 13.5737" stroke="black" stroke-miterlimit="10" stroke-linecap="round" stroke-linejoin="round"/>
<path d="M41.8945 19.9707L45.4978 21.5034" stroke="black" stroke-miterlimit="10" stroke-linecap="round" stroke-linejoin="round"/>
<path d="M39.1243 5.66602L37.5879 9.26559" stroke="black" stroke-miterlimit="10" stroke-linecap="round" stroke-linejoin="round"/>
<path d="M31.1955 24.2754L29.6592 27.8786" stroke="black" stroke-miterlimit="10" stroke-linecap="round" stroke-linejoin="round"/>
<path d="M29.8838 5.56836L31.3465 9.20109" stroke="black" stroke-miterlimit="10" stroke-linecap="round" stroke-linejoin="round"/>
<path d="M37.4365 24.3359L38.8992 27.9687" stroke="black" stroke-miterlimit="10" stroke-linecap="round" stroke-linejoin="round"/>
<path d="M45.5898 12.2637L41.957 13.7227" stroke="black" stroke-miterlimit="10" stroke-linecap="round" stroke-linejoin="round"/>
<path d="M26.8256 19.8164L23.1929 21.2791" stroke="black" stroke-miterlimit="10" stroke-linecap="round" stroke-linejoin="round"/>
<path d="M34.3893 25.7953C38.7885 25.7953 42.3548 21.754 42.3548 16.7688C42.3548 11.7835 38.7885 7.74219 34.3893 7.74219C29.9901 7.74219 26.4238 11.7835 26.4238 16.7688C26.4238 21.754 29.9901 25.7953 34.3893 25.7953Z" stroke="black" stroke-miterlimit="10" stroke-linecap="round" stroke-linejoin="round"/>
</svg>
