<svg width="24" height="24" viewBox="0 0 24 24" fill="none" xmlns="http://www.w3.org/2000/svg">
<path d="M2.40332 7.06158L11.9997 11.8592L21.5961 7.06158C21.5606 6.45011 21.2926 5.87537 20.8471 5.45505C20.4016 5.03474 19.8122 4.80067 19.1997 4.80078H4.79972C4.18722 4.80067 3.59786 5.03474 3.15233 5.45505C2.70681 5.87537 2.43885 6.45011 2.40332 7.06158Z" fill="#6672F2"/>
<path d="M21.6004 9.74219L12.0004 14.5422L2.40039 9.74219V16.8006C2.40039 17.4371 2.65325 18.0476 3.10333 18.4976C3.55342 18.9477 4.16387 19.2006 4.80039 19.2006H19.2004C19.8369 19.2006 20.4474 18.9477 20.8974 18.4976C21.3475 18.0476 21.6004 17.4371 21.6004 16.8006V9.74219Z" fill="#6672F2"/>
</svg>
