<svg width="371" height="133" viewBox="0 0 371 133" fill="none" xmlns="http://www.w3.org/2000/svg">
<path d="M92.1119 93.8802C91.7094 92.2643 88.9477 87.5095 88.1454 85.888C87.3459 84.2637 82.9346 79.7764 81.4003 78.929C79.8633 78.0817 74.4498 74.0166 74.4498 74.0166C74.4498 74.0166 75.1113 73.5606 76.35 72.8061C77.5887 72.0516 77.7632 70.7088 77.0538 70.3175C76.3444 69.9262 71.7585 71.8152 71.7585 71.8152L70.8999 71.1367C70.8999 71.1367 73.031 70.7201 74.6778 69.3153C76.3247 67.9134 76.3866 66.8662 75.8545 66.6241C75.3197 66.382 71.6544 67.4405 70.6015 67.5784C69.6584 67.7023 67.975 68.8649 67.64 69.1042C67.5865 69.0676 67.4232 69.0029 67.0066 68.8818C66.0325 68.6003 65.3907 69.0169 65.0867 69.5687C64.7826 70.1205 65.2528 70.9453 65.2528 70.9453L63.3216 72.8596L64.9712 67.9134C64.9712 67.9134 66.6181 66.5115 68.0397 65.239C69.4614 63.9666 69.9934 61.2303 68.9265 61.2078C67.8596 61.1852 63.6932 64.1777 63.1949 64.5212C62.6966 64.8646 61.1736 68.1837 61.1736 68.1837C61.1736 68.1837 60.4501 64.189 58.7245 62.0044C57.0016 59.8199 56.3569 61.2641 56.3569 61.2641L58.9609 73.0285L63.8621 86.6706C64.3097 87.9121 65.1936 88.9509 66.3478 89.5871L72.4426 92.9484C73.7319 93.6578 78.3347 96.7854 81.0851 98.6096C81.5777 98.9362 80.3559 101.436 78.9146 104.001C77.0482 107.325 78.2643 111.537 81.603 113.378C86.0115 115.81 91.456 112.84 91.7938 107.815C92.1964 101.915 92.5089 95.4707 92.1119 93.8802ZM67.4035 75.7564C67.3359 75.9225 67.1192 76.8317 67.1192 76.8317C67.1192 76.8317 66.2606 76.0407 66.6547 75.5762C67.0488 75.1089 67.6625 74.3094 67.6625 74.3094L68.3128 74.6697C68.3128 74.6669 67.4711 75.5903 67.4035 75.7564ZM70.4607 79.5258L70.2665 78.1098L71.0378 76.9781L74.6328 79.9762C74.6328 79.9762 72.3722 80.3479 70.4607 79.5258Z" stroke="black" stroke-width="0.764086" stroke-miterlimit="10" stroke-linecap="round" stroke-linejoin="round"/>
<path d="M74.4499 74.0166L72.2907 75.137L70.2666 78.107L70.8493 82.3578C70.8493 82.3578 82.245 86.9775 84.9194 92.5852" stroke="black" stroke-width="0.764086" stroke-miterlimit="10" stroke-linecap="round" stroke-linejoin="round"/>
<path d="M66.0464 84.6402C66.0464 84.6402 66.9472 76.5833 67.4033 75.7556C67.8593 74.928 70.818 72.1861 71.7611 71.8145" stroke="black" stroke-width="0.764086" stroke-miterlimit="10" stroke-linecap="round" stroke-linejoin="round"/>
<path d="M67.5779 69.1494L65.2497 70.9483L63.3186 72.8626L62.7724 73.389C62.4599 73.6874 62.2939 74.1041 62.3107 74.5376L62.5388 80.2438" stroke="black" stroke-width="0.764086" stroke-miterlimit="10" stroke-linecap="round" stroke-linejoin="round"/>
<path d="M61.1737 68.1865L59.6226 71.0017" stroke="black" stroke-width="0.764086" stroke-miterlimit="10" stroke-linecap="round" stroke-linejoin="round"/>
<path d="M70.9028 71.1372L69.6022 71.7678L67.6626 74.307" stroke="black" stroke-width="0.764086" stroke-miterlimit="10" stroke-linecap="round" stroke-linejoin="round"/>
<path d="M48.4579 48.0576L46.0791 50.4392" stroke="black" stroke-width="0.764086" stroke-miterlimit="10" stroke-linecap="round" stroke-linejoin="round"/>
<path d="M59.7465 36.772L57.3677 39.1508" stroke="black" stroke-width="0.764086" stroke-miterlimit="10" stroke-linecap="round" stroke-linejoin="round"/>
<path d="M57.3647 48.0576L59.7464 50.4392" stroke="black" stroke-width="0.764086" stroke-miterlimit="10" stroke-linecap="round" stroke-linejoin="round"/>
<path d="M46.0791 36.772L48.4579 39.1508" stroke="black" stroke-width="0.764086" stroke-miterlimit="10" stroke-linecap="round" stroke-linejoin="round"/>
<path d="M43.6973 43.604C43.6973 43.604 46.1802 43.0241 48.4971 42.6075C49.1896 42.4808 49.8145 42.1768 50.3297 41.746C49.823 41.0789 49.3529 40.3779 49.0967 39.7867C49.6794 40.0401 50.3663 40.4989 51.0251 40.9972C51.4107 40.4539 51.6641 39.8092 51.7373 39.1111C51.9484 37.042 52.3088 34.7082 52.9168 33.1655C53.5277 34.711 53.8852 37.0476 54.0964 39.1195C54.1724 39.8684 54.4567 40.5524 54.8902 41.1211C55.7798 40.4877 56.7313 39.7867 56.7313 39.7867C56.5033 40.3131 55.9403 41.0929 55.4645 41.7235C55.9853 42.1683 56.6244 42.4864 57.3338 42.6159C59.6281 43.0326 62.1308 43.604 62.1308 43.604C60.7401 44.153 59.1101 44.4992 57.5505 44.716C56.8073 44.8202 56.1317 45.1214 55.5771 45.5634C56.0529 46.1996 56.492 46.8611 56.7341 47.4214C56.1739 47.1793 55.518 46.7429 54.8846 46.27C54.4483 46.8414 54.1583 47.5283 54.0767 48.2856C53.8627 50.3069 53.508 52.5477 52.9168 54.0454C52.3256 52.5477 51.9709 50.3069 51.757 48.2856C51.6754 47.5143 51.3769 46.8161 50.9265 46.239C50.3156 46.695 49.595 47.2074 49.0995 47.4242C49.0995 47.4242 49.7526 46.529 50.3719 45.6591C49.7948 45.1664 49.077 44.8314 48.2831 44.7188C46.7179 44.4992 45.0879 44.153 43.6973 43.604Z" stroke="black" stroke-width="0.764086" stroke-miterlimit="10" stroke-linecap="round" stroke-linejoin="round"/>
<path d="M101.708 92.1626C101.951 92.2583 102.212 92.3399 102.483 92.4075C103.842 92.7481 104.859 93.877 105.115 95.2536C105.191 95.6646 105.289 96.0474 105.408 96.3543C105.529 96.0474 105.624 95.6646 105.7 95.2536C105.959 93.877 106.973 92.7481 108.333 92.4075C108.603 92.3399 108.862 92.2583 109.107 92.1626C109.107 92.1626 108.865 92.1063 108.513 92.0331C107.085 91.7262 105.976 90.5917 105.717 89.156C105.638 88.714 105.537 88.3002 105.408 87.9736C105.278 88.3002 105.177 88.714 105.098 89.1532C104.842 90.5861 103.735 91.7206 102.314 92.0274C101.953 92.1034 101.708 92.1626 101.708 92.1626Z" stroke="black" stroke-width="0.764086" stroke-miterlimit="10" stroke-linecap="round" stroke-linejoin="round"/>
<path d="M55.5095 111.148C58.6812 111.148 61.2523 108.236 61.2523 104.642C61.2523 101.049 58.6812 98.1367 55.5095 98.1367C52.3378 98.1367 49.7666 101.049 49.7666 104.642C49.7666 108.236 52.3378 111.148 55.5095 111.148Z" stroke="black" stroke-width="0.764086" stroke-miterlimit="10" stroke-linecap="round" stroke-linejoin="round"/>
<path d="M25.8322 75.8447C25.6689 72.6805 25.1847 66.521 23.8362 63.1006C22.4878 66.5182 22.0064 72.6805 21.8403 75.8447C18.921 75.9939 10.8247 77.8406 10.8247 77.8406C14.2423 79.1891 18.6761 79.6705 21.8403 79.8365C22.0036 83.0008 22.4878 89.1603 23.8362 92.5806C25.1847 89.1631 25.6661 83.0008 25.8322 79.8365C28.9964 79.6733 33.4274 79.1891 36.8478 77.8406C36.845 77.8406 28.9964 76.008 25.8322 75.8447Z" stroke="black" stroke-width="0.764086" stroke-miterlimit="10" stroke-linecap="round" stroke-linejoin="round"/>
<path d="M1 77.8408H8.40661" stroke="black" stroke-width="0.764086" stroke-miterlimit="10" stroke-linecap="round" stroke-linejoin="round"/>
<path d="M39.2661 77.8408H46.6727" stroke="black" stroke-width="0.764086" stroke-miterlimit="10" stroke-linecap="round" stroke-linejoin="round"/>
<path d="M23.8364 55.001V61.1211" stroke="black" stroke-width="0.764086" stroke-miterlimit="10" stroke-linecap="round" stroke-linejoin="round"/>
<path d="M23.8364 94.5566V100.677" stroke="black" stroke-width="0.764086" stroke-miterlimit="10" stroke-linecap="round" stroke-linejoin="round"/>
<path d="M11.6553 65.6582L15.4839 69.4868" stroke="black" stroke-width="0.764086" stroke-miterlimit="10" stroke-linecap="round" stroke-linejoin="round"/>
<path d="M8.7334 62.7383L10.4253 64.4302" stroke="black" stroke-width="0.764086" stroke-miterlimit="10" stroke-linecap="round" stroke-linejoin="round"/>
<path d="M36.0429 90.0449L32.2144 86.2163" stroke="black" stroke-width="0.764086" stroke-miterlimit="10" stroke-linecap="round" stroke-linejoin="round"/>
<path d="M38.9624 92.9645L37.2705 91.2754" stroke="black" stroke-width="0.764086" stroke-miterlimit="10" stroke-linecap="round" stroke-linejoin="round"/>
<path d="M15.4842 86.1953L11.4727 90.2041" stroke="black" stroke-width="0.764086" stroke-miterlimit="10" stroke-linecap="round" stroke-linejoin="round"/>
<path d="M36.0429 65.6582L32.2144 69.4868" stroke="black" stroke-width="0.764086" stroke-miterlimit="10" stroke-linecap="round" stroke-linejoin="round"/>
<path d="M38.9624 62.7383L37.2705 64.4302" stroke="black" stroke-width="0.764086" stroke-miterlimit="10" stroke-linecap="round" stroke-linejoin="round"/>
<path d="M8.7334 92.965L10.4253 91.2759" stroke="black" stroke-width="0.764086" stroke-miterlimit="10" stroke-linecap="round" stroke-linejoin="round"/>
<path d="M7.75049 70.9863L12.9669 73.2103" stroke="black" stroke-width="0.764086" stroke-miterlimit="10" stroke-linecap="round" stroke-linejoin="round"/>
<path d="M34.7056 82.4692L39.922 84.6932" stroke="black" stroke-width="0.764086" stroke-miterlimit="10" stroke-linecap="round" stroke-linejoin="round"/>
<path d="M30.6879 61.7549L28.4668 66.9713" stroke="black" stroke-width="0.764086" stroke-miterlimit="10" stroke-linecap="round" stroke-linejoin="round"/>
<path d="M19.205 88.707L16.9839 93.9235" stroke="black" stroke-width="0.764086" stroke-miterlimit="10" stroke-linecap="round" stroke-linejoin="round"/>
<path d="M17.3076 61.6196L19.4246 66.8811" stroke="black" stroke-width="0.764086" stroke-miterlimit="10" stroke-linecap="round" stroke-linejoin="round"/>
<path d="M28.2471 88.7969L30.3641 94.0584" stroke="black" stroke-width="0.764086" stroke-miterlimit="10" stroke-linecap="round" stroke-linejoin="round"/>
<path d="M40.0541 71.3125L34.7954 73.4295" stroke="black" stroke-width="0.764086" stroke-miterlimit="10" stroke-linecap="round" stroke-linejoin="round"/>
<path d="M12.8768 82.249L7.61816 84.366" stroke="black" stroke-width="0.764086" stroke-miterlimit="10" stroke-linecap="round" stroke-linejoin="round"/>
<path d="M71.9131 25.5327H81.7323" stroke="black" stroke-width="0.764086" stroke-miterlimit="10" stroke-linecap="round" stroke-linejoin="round"/>
<path d="M86.1943 25.5327H96.0135" stroke="black" stroke-width="0.764086" stroke-miterlimit="10" stroke-linecap="round" stroke-linejoin="round"/>
<path d="M83.9648 13.4844V22.6251" stroke="black" stroke-width="0.764086" stroke-miterlimit="10" stroke-linecap="round" stroke-linejoin="round"/>
<path d="M83.9648 28.4438V37.5818" stroke="black" stroke-width="0.764086" stroke-miterlimit="10" stroke-linecap="round" stroke-linejoin="round"/>
<path d="M77.5352 19.1064L79.5564 21.1277" stroke="black" stroke-width="0.764086" stroke-miterlimit="10" stroke-linecap="round" stroke-linejoin="round"/>
<path d="M75.9951 17.5664L76.8875 18.4588" stroke="black" stroke-width="0.764086" stroke-miterlimit="10" stroke-linecap="round" stroke-linejoin="round"/>
<path d="M90.4031 31.9739L88.3818 29.9526" stroke="black" stroke-width="0.764086" stroke-miterlimit="10" stroke-linecap="round" stroke-linejoin="round"/>
<path d="M91.9427 33.5135L91.0503 32.6211" stroke="black" stroke-width="0.764086" stroke-miterlimit="10" stroke-linecap="round" stroke-linejoin="round"/>
<path d="M79.5561 29.9424L77.4419 32.0565" stroke="black" stroke-width="0.764086" stroke-miterlimit="10" stroke-linecap="round" stroke-linejoin="round"/>
<path d="M90.4031 19.1064L88.3818 21.1277" stroke="black" stroke-width="0.764086" stroke-miterlimit="10" stroke-linecap="round" stroke-linejoin="round"/>
<path d="M91.9427 17.5664L91.0503 18.4588" stroke="black" stroke-width="0.764086" stroke-miterlimit="10" stroke-linecap="round" stroke-linejoin="round"/>
<path d="M75.9951 33.5145L76.8875 32.6221" stroke="black" stroke-width="0.764086" stroke-miterlimit="10" stroke-linecap="round" stroke-linejoin="round"/>
<path d="M75.4771 21.9199L78.2303 23.091" stroke="black" stroke-width="0.764086" stroke-miterlimit="10" stroke-linecap="round" stroke-linejoin="round"/>
<path d="M89.6963 27.978L92.4495 29.1491" stroke="black" stroke-width="0.764086" stroke-miterlimit="10" stroke-linecap="round" stroke-linejoin="round"/>
<path d="M87.5792 17.0488L86.4053 19.7992" stroke="black" stroke-width="0.764086" stroke-miterlimit="10" stroke-linecap="round" stroke-linejoin="round"/>
<path d="M81.5211 31.2681L80.3472 34.0213" stroke="black" stroke-width="0.764086" stroke-miterlimit="10" stroke-linecap="round" stroke-linejoin="round"/>
<path d="M80.519 16.9761L81.6367 19.7518" stroke="black" stroke-width="0.764086" stroke-miterlimit="10" stroke-linecap="round" stroke-linejoin="round"/>
<path d="M86.29 31.3169L87.4076 34.0926" stroke="black" stroke-width="0.764086" stroke-miterlimit="10" stroke-linecap="round" stroke-linejoin="round"/>
<path d="M92.5199 22.0923L89.7441 23.2071" stroke="black" stroke-width="0.764086" stroke-miterlimit="10" stroke-linecap="round" stroke-linejoin="round"/>
<path d="M78.1825 27.8633L75.4067 28.9809" stroke="black" stroke-width="0.764086" stroke-miterlimit="10" stroke-linecap="round" stroke-linejoin="round"/>
<path d="M83.9647 32.4309C87.3261 32.4309 90.051 29.3429 90.051 25.5338C90.051 21.7246 87.3261 18.6367 83.9647 18.6367C80.6034 18.6367 77.8784 21.7246 77.8784 25.5338C77.8784 29.3429 80.6034 32.4309 83.9647 32.4309Z" stroke="black" stroke-width="0.764086" stroke-miterlimit="10" stroke-linecap="round" stroke-linejoin="round"/>
<path d="M279.234 107.817C279.575 112.842 285.016 115.812 289.425 113.38C292.764 111.539 293.98 107.327 292.113 104.003C290.672 101.435 289.45 98.9381 289.943 98.6116C292.693 96.7874 297.296 93.6597 298.585 92.9503L304.68 89.5891C305.837 88.95 306.721 87.9141 307.166 86.6726L312.067 73.0305L314.671 61.266C314.671 61.266 314.029 59.8219 312.303 62.0064C310.581 64.1909 309.854 68.1856 309.854 68.1856C309.854 68.1856 308.331 64.8638 307.833 64.5231C307.335 64.1797 303.168 61.1872 302.101 61.2097C301.035 61.2322 301.569 63.9685 302.988 65.241C304.41 66.5134 306.057 67.9154 306.057 67.9154L307.706 72.8615L305.775 70.9473C305.775 70.9473 306.245 70.1224 305.941 69.5707C305.637 69.0189 304.995 68.6023 304.021 68.8838C303.605 69.0048 303.441 69.0696 303.388 69.1062C303.05 68.8669 301.37 67.7042 300.426 67.5804C299.374 67.4424 295.705 66.3811 295.173 66.626C294.639 66.8681 294.703 67.9125 296.35 69.3173C297.997 70.7192 300.128 71.1387 300.128 71.1387L299.269 71.8171C299.269 71.8171 294.684 69.9282 293.974 70.3195C293.265 70.7108 293.439 72.0536 294.678 72.8081C295.917 73.5625 296.578 74.0186 296.578 74.0186C296.578 74.0186 291.165 78.0836 289.628 78.931C288.091 79.7783 283.682 84.2656 282.883 85.89C282.083 87.5143 279.321 92.2691 278.916 93.8821C278.522 95.4699 278.834 101.914 279.234 107.817ZM302.718 74.666L303.368 74.3057C303.368 74.3057 303.979 75.1052 304.376 75.5725C304.77 76.0398 303.912 76.8281 303.912 76.8281C303.912 76.8281 303.695 75.9188 303.627 75.7527C303.56 75.5894 302.718 74.666 302.718 74.666ZM296.398 79.9754L299.993 76.9773L300.764 78.109L300.57 79.525C298.659 80.347 296.398 79.9754 296.398 79.9754Z" stroke="black" stroke-width="0.764086" stroke-miterlimit="10" stroke-linecap="round" stroke-linejoin="round"/>
<path d="M296.581 74.0156L298.74 75.136L300.764 78.106L300.181 82.3569C300.181 82.3569 288.786 86.9765 286.111 92.5842" stroke="black" stroke-width="0.764086" stroke-miterlimit="10" stroke-linecap="round" stroke-linejoin="round"/>
<path d="M304.984 84.6412C304.984 84.6412 304.083 76.5843 303.627 75.7566C303.171 74.929 300.213 72.187 299.27 71.8154" stroke="black" stroke-width="0.764086" stroke-miterlimit="10" stroke-linecap="round" stroke-linejoin="round"/>
<path d="M303.453 69.1484L305.781 70.9473L307.712 72.8616L308.258 73.388C308.571 73.6864 308.737 74.1031 308.72 74.5366L308.492 80.2429" stroke="black" stroke-width="0.764086" stroke-miterlimit="10" stroke-linecap="round" stroke-linejoin="round"/>
<path d="M309.857 68.186L311.408 71.0012" stroke="black" stroke-width="0.764086" stroke-miterlimit="10" stroke-linecap="round" stroke-linejoin="round"/>
<path d="M300.128 71.1362L301.429 71.7668L303.368 74.3061" stroke="black" stroke-width="0.764086" stroke-miterlimit="10" stroke-linecap="round" stroke-linejoin="round"/>
<path d="M322.573 48.0576L324.952 50.4392" stroke="black" stroke-width="0.764086" stroke-miterlimit="10" stroke-linecap="round" stroke-linejoin="round"/>
<path d="M311.284 36.772L313.663 39.1508" stroke="black" stroke-width="0.764086" stroke-miterlimit="10" stroke-linecap="round" stroke-linejoin="round"/>
<path d="M313.663 48.0576L311.284 50.4392" stroke="black" stroke-width="0.764086" stroke-miterlimit="10" stroke-linecap="round" stroke-linejoin="round"/>
<path d="M324.952 36.772L322.573 39.1508" stroke="black" stroke-width="0.764086" stroke-miterlimit="10" stroke-linecap="round" stroke-linejoin="round"/>
<path d="M327.333 43.604C327.333 43.604 324.85 43.0241 322.534 42.6075C321.841 42.4808 321.216 42.1768 320.701 41.746C321.208 41.0789 321.678 40.3779 321.934 39.7867C321.351 40.0401 320.664 40.4989 320.006 40.9972C319.62 40.4539 319.367 39.8092 319.293 39.1111C319.082 37.042 318.722 34.7082 318.114 33.1655C317.503 34.711 317.145 37.0476 316.934 39.1195C316.858 39.8684 316.574 40.5524 316.14 41.1211C315.251 40.4877 314.299 39.7867 314.299 39.7867C314.527 40.3131 315.09 41.0929 315.566 41.7235C315.045 42.1683 314.406 42.4864 313.697 42.6159C311.403 43.0326 308.9 43.604 308.9 43.604C310.291 44.153 311.921 44.4992 313.48 44.716C314.223 44.8202 314.899 45.1214 315.454 45.5634C314.978 46.1996 314.539 46.8611 314.297 47.4214C314.857 47.1793 315.513 46.7429 316.146 46.27C316.582 46.8414 316.872 47.5283 316.954 48.2856C317.168 50.3069 317.523 52.5477 318.114 54.0454C318.705 52.5477 319.06 50.3069 319.274 48.2856C319.355 47.5143 319.654 46.8161 320.104 46.239C320.715 46.695 321.436 47.2074 321.931 47.4242C321.931 47.4242 321.278 46.529 320.659 45.6591C321.236 45.1664 321.954 44.8314 322.748 44.7188C324.313 44.4992 325.943 44.153 327.333 43.604Z" stroke="black" stroke-width="0.764086" stroke-miterlimit="10" stroke-linecap="round" stroke-linejoin="round"/>
<path d="M268.717 92.0274C267.292 91.7178 266.189 90.5861 265.933 89.1532C265.854 88.714 265.752 88.2974 265.623 87.9736C265.493 88.3002 265.392 88.7168 265.313 89.156C265.054 90.5945 263.945 91.729 262.518 92.0331C262.163 92.1091 261.924 92.1626 261.924 92.1626C262.166 92.2583 262.428 92.3399 262.698 92.4075C264.058 92.7481 265.074 93.877 265.33 95.2536C265.406 95.6646 265.505 96.0474 265.623 96.3543C265.744 96.0474 265.84 95.6646 265.916 95.2536C266.175 93.877 267.188 92.7481 268.548 92.4075C268.818 92.3399 269.077 92.2583 269.322 92.1626C269.322 92.1626 269.077 92.1034 268.717 92.0274Z" stroke="black" stroke-width="0.764086" stroke-miterlimit="10" stroke-linecap="round" stroke-linejoin="round"/>
<path d="M315.521 111.148C318.693 111.148 321.264 108.236 321.264 104.642C321.264 101.049 318.693 98.1367 315.521 98.1367C312.349 98.1367 309.778 101.049 309.778 104.642C309.778 108.236 312.349 111.148 315.521 111.148Z" stroke="black" stroke-width="0.764086" stroke-miterlimit="10" stroke-linecap="round" stroke-linejoin="round"/>
<path d="M349.19 75.8447C349.026 72.6805 348.542 66.521 347.194 63.1006C345.845 66.5182 345.364 72.6805 345.198 75.8447C342.278 75.9939 334.182 77.8406 334.182 77.8406C337.6 79.1891 342.034 79.6705 345.198 79.8365C345.361 83.0008 345.845 89.1603 347.194 92.5806C348.542 89.1631 349.024 83.0008 349.19 79.8365C352.354 79.6733 356.785 79.1891 360.205 77.8406C360.202 77.8406 352.354 76.008 349.19 75.8447Z" stroke="black" stroke-width="0.764086" stroke-miterlimit="10" stroke-linecap="round" stroke-linejoin="round"/>
<path d="M324.357 77.8408H331.764" stroke="black" stroke-width="0.764086" stroke-miterlimit="10" stroke-linecap="round" stroke-linejoin="round"/>
<path d="M362.624 77.8408H370.03" stroke="black" stroke-width="0.764086" stroke-miterlimit="10" stroke-linecap="round" stroke-linejoin="round"/>
<path d="M347.194 55.001V61.1211" stroke="black" stroke-width="0.764086" stroke-miterlimit="10" stroke-linecap="round" stroke-linejoin="round"/>
<path d="M347.194 94.5566V100.677" stroke="black" stroke-width="0.764086" stroke-miterlimit="10" stroke-linecap="round" stroke-linejoin="round"/>
<path d="M335.013 65.6582L338.841 69.4868" stroke="black" stroke-width="0.764086" stroke-miterlimit="10" stroke-linecap="round" stroke-linejoin="round"/>
<path d="M332.093 62.7383L333.782 64.4302" stroke="black" stroke-width="0.764086" stroke-miterlimit="10" stroke-linecap="round" stroke-linejoin="round"/>
<path d="M359.4 90.0449L355.571 86.2163" stroke="black" stroke-width="0.764086" stroke-miterlimit="10" stroke-linecap="round" stroke-linejoin="round"/>
<path d="M362.319 92.9645L360.627 91.2754" stroke="black" stroke-width="0.764086" stroke-miterlimit="10" stroke-linecap="round" stroke-linejoin="round"/>
<path d="M338.841 86.1953L334.833 90.2041" stroke="black" stroke-width="0.764086" stroke-miterlimit="10" stroke-linecap="round" stroke-linejoin="round"/>
<path d="M359.4 65.6582L355.571 69.4868" stroke="black" stroke-width="0.764086" stroke-miterlimit="10" stroke-linecap="round" stroke-linejoin="round"/>
<path d="M362.319 62.7383L360.627 64.4302" stroke="black" stroke-width="0.764086" stroke-miterlimit="10" stroke-linecap="round" stroke-linejoin="round"/>
<path d="M332.093 92.965L333.782 91.2759" stroke="black" stroke-width="0.764086" stroke-miterlimit="10" stroke-linecap="round" stroke-linejoin="round"/>
<path d="M331.108 70.9863L336.324 73.2103" stroke="black" stroke-width="0.764086" stroke-miterlimit="10" stroke-linecap="round" stroke-linejoin="round"/>
<path d="M358.063 82.4692L363.279 84.6932" stroke="black" stroke-width="0.764086" stroke-miterlimit="10" stroke-linecap="round" stroke-linejoin="round"/>
<path d="M354.045 61.7549L351.824 66.9713" stroke="black" stroke-width="0.764086" stroke-miterlimit="10" stroke-linecap="round" stroke-linejoin="round"/>
<path d="M342.562 88.707L340.341 93.9235" stroke="black" stroke-width="0.764086" stroke-miterlimit="10" stroke-linecap="round" stroke-linejoin="round"/>
<path d="M340.665 61.6196L342.782 66.8811" stroke="black" stroke-width="0.764086" stroke-miterlimit="10" stroke-linecap="round" stroke-linejoin="round"/>
<path d="M351.604 88.7969L353.721 94.0584" stroke="black" stroke-width="0.764086" stroke-miterlimit="10" stroke-linecap="round" stroke-linejoin="round"/>
<path d="M363.411 71.3125L358.153 73.4295" stroke="black" stroke-width="0.764086" stroke-miterlimit="10" stroke-linecap="round" stroke-linejoin="round"/>
<path d="M336.234 82.249L330.976 84.366" stroke="black" stroke-width="0.764086" stroke-miterlimit="10" stroke-linecap="round" stroke-linejoin="round"/>
<path d="M275.017 25.5327H284.836" stroke="black" stroke-width="0.764086" stroke-miterlimit="10" stroke-linecap="round" stroke-linejoin="round"/>
<path d="M289.295 25.5327H299.117" stroke="black" stroke-width="0.764086" stroke-miterlimit="10" stroke-linecap="round" stroke-linejoin="round"/>
<path d="M287.066 13.4844V22.6251" stroke="black" stroke-width="0.764086" stroke-miterlimit="10" stroke-linecap="round" stroke-linejoin="round"/>
<path d="M287.066 28.4438V37.5818" stroke="black" stroke-width="0.764086" stroke-miterlimit="10" stroke-linecap="round" stroke-linejoin="round"/>
<path d="M280.639 19.1064L282.66 21.1277" stroke="black" stroke-width="0.764086" stroke-miterlimit="10" stroke-linecap="round" stroke-linejoin="round"/>
<path d="M279.099 17.5664L279.992 18.4588" stroke="black" stroke-width="0.764086" stroke-miterlimit="10" stroke-linecap="round" stroke-linejoin="round"/>
<path d="M293.507 31.9739L291.486 29.9526" stroke="black" stroke-width="0.764086" stroke-miterlimit="10" stroke-linecap="round" stroke-linejoin="round"/>
<path d="M295.047 33.5135L294.154 32.6211" stroke="black" stroke-width="0.764086" stroke-miterlimit="10" stroke-linecap="round" stroke-linejoin="round"/>
<path d="M282.66 29.9424L280.543 32.0565" stroke="black" stroke-width="0.764086" stroke-miterlimit="10" stroke-linecap="round" stroke-linejoin="round"/>
<path d="M293.507 19.1064L291.486 21.1277" stroke="black" stroke-width="0.764086" stroke-miterlimit="10" stroke-linecap="round" stroke-linejoin="round"/>
<path d="M295.047 17.5664L294.154 18.4588" stroke="black" stroke-width="0.764086" stroke-miterlimit="10" stroke-linecap="round" stroke-linejoin="round"/>
<path d="M279.099 33.5145L279.992 32.6221" stroke="black" stroke-width="0.764086" stroke-miterlimit="10" stroke-linecap="round" stroke-linejoin="round"/>
<path d="M278.581 21.9199L281.334 23.091" stroke="black" stroke-width="0.764086" stroke-miterlimit="10" stroke-linecap="round" stroke-linejoin="round"/>
<path d="M292.8 27.978L295.554 29.1491" stroke="black" stroke-width="0.764086" stroke-miterlimit="10" stroke-linecap="round" stroke-linejoin="round"/>
<path d="M290.683 17.0488L289.509 19.7992" stroke="black" stroke-width="0.764086" stroke-miterlimit="10" stroke-linecap="round" stroke-linejoin="round"/>
<path d="M284.625 31.2681L283.451 34.0213" stroke="black" stroke-width="0.764086" stroke-miterlimit="10" stroke-linecap="round" stroke-linejoin="round"/>
<path d="M283.623 16.9761L284.741 19.7518" stroke="black" stroke-width="0.764086" stroke-miterlimit="10" stroke-linecap="round" stroke-linejoin="round"/>
<path d="M289.394 31.3169L290.512 34.0926" stroke="black" stroke-width="0.764086" stroke-miterlimit="10" stroke-linecap="round" stroke-linejoin="round"/>
<path d="M295.624 22.0923L292.848 23.2071" stroke="black" stroke-width="0.764086" stroke-miterlimit="10" stroke-linecap="round" stroke-linejoin="round"/>
<path d="M281.286 27.8633L278.511 28.9809" stroke="black" stroke-width="0.764086" stroke-miterlimit="10" stroke-linecap="round" stroke-linejoin="round"/>
<path d="M287.066 32.4309C290.427 32.4309 293.152 29.3429 293.152 25.5338C293.152 21.7246 290.427 18.6367 287.066 18.6367C283.704 18.6367 280.979 21.7246 280.979 25.5338C280.979 29.3429 283.704 32.4309 287.066 32.4309Z" stroke="black" stroke-width="0.764086" stroke-miterlimit="10" stroke-linecap="round" stroke-linejoin="round"/>
<path d="M214.424 69.8958C216.407 53.338 204.739 38.2902 188.364 36.2855C171.989 34.2808 157.107 46.0785 155.125 62.6362C153.142 79.194 164.81 94.2418 181.185 96.2465C197.56 98.2512 212.442 86.4536 214.424 69.8958Z" stroke="black" stroke-width="1.18473" stroke-miterlimit="10" stroke-linecap="round" stroke-linejoin="round"/>
<path d="M184.767 41.6899C183.496 41.6899 182.248 41.7914 181.03 41.9812C189.581 43.7996 196.128 53.9863 196.128 66.2826C196.128 78.5789 189.581 88.7655 181.03 90.5839C182.248 90.7737 183.496 90.8752 184.767 90.8752C198.197 90.8752 209.083 79.8677 209.083 66.287C209.083 52.7019 198.197 41.6899 184.767 41.6899Z" stroke="black" stroke-width="1.18473" stroke-miterlimit="10" stroke-linecap="round" stroke-linejoin="round"/>
<path d="M184.767 28.2364V1" stroke="black" stroke-width="1.18473" stroke-miterlimit="10" stroke-linecap="round" stroke-linejoin="round"/>
<path d="M184.767 131.56V104.323" stroke="black" stroke-width="1.18473" stroke-miterlimit="10" stroke-linecap="round" stroke-linejoin="round"/>
<path d="M222.392 66.2817H249.328" stroke="black" stroke-width="1.18473" stroke-miterlimit="10" stroke-linecap="round" stroke-linejoin="round"/>
<path d="M120.206 66.2817H147.141" stroke="black" stroke-width="1.18473" stroke-miterlimit="10" stroke-linecap="round" stroke-linejoin="round"/>
<path d="M211.371 39.3811L230.419 20.1201" stroke="black" stroke-width="1.18473" stroke-miterlimit="10" stroke-linecap="round" stroke-linejoin="round"/>
<path d="M139.114 112.44L158.163 93.1836" stroke="black" stroke-width="1.18473" stroke-miterlimit="10" stroke-linecap="round" stroke-linejoin="round"/>
<path d="M211.371 93.1836L230.419 112.44" stroke="black" stroke-width="1.18473" stroke-miterlimit="10" stroke-linecap="round" stroke-linejoin="round"/>
<path d="M139.114 20.1201L158.163 39.3811" stroke="black" stroke-width="1.18473" stroke-miterlimit="10" stroke-linecap="round" stroke-linejoin="round"/>
<path d="M198.813 30.9862L208.865 5.71826" stroke="black" stroke-width="1.18473" stroke-miterlimit="10" stroke-linecap="round" stroke-linejoin="round"/>
<path d="M160.664 126.841L170.72 101.573" stroke="black" stroke-width="1.18473" stroke-miterlimit="10" stroke-linecap="round" stroke-linejoin="round"/>
<path d="M219.673 80.4805L244.662 90.6494" stroke="black" stroke-width="1.18473" stroke-miterlimit="10" stroke-linecap="round" stroke-linejoin="round"/>
<path d="M124.872 41.9102L149.861 52.0791" stroke="black" stroke-width="1.18473" stroke-miterlimit="10" stroke-linecap="round" stroke-linejoin="round"/>
<path d="M219.38 51.363L244.16 40.6865" stroke="black" stroke-width="1.18473" stroke-miterlimit="10" stroke-linecap="round" stroke-linejoin="round"/>
<path d="M125.374 91.8713L150.153 81.1948" stroke="black" stroke-width="1.18473" stroke-miterlimit="10" stroke-linecap="round" stroke-linejoin="round"/>
<path d="M199.516 101.276L210.074 126.332" stroke="black" stroke-width="1.18473" stroke-miterlimit="10" stroke-linecap="round" stroke-linejoin="round"/>
<path d="M159.459 6.2251L170.018 31.2812" stroke="black" stroke-width="1.18473" stroke-miterlimit="10" stroke-linecap="round" stroke-linejoin="round"/>
<path d="M215.487 44.3154L227.002 36.0796" stroke="black" stroke-width="1.18473" stroke-miterlimit="10" stroke-linecap="round" stroke-linejoin="round"/>
<path d="M142.532 96.4794L154.047 88.2437" stroke="black" stroke-width="1.18473" stroke-miterlimit="10" stroke-linecap="round" stroke-linejoin="round"/>
<path d="M206.491 97.3398L214.632 108.987" stroke="black" stroke-width="1.18473" stroke-miterlimit="10" stroke-linecap="round" stroke-linejoin="round"/>
<path d="M154.902 23.5708L163.043 35.2183" stroke="black" stroke-width="1.18473" stroke-miterlimit="10" stroke-linecap="round" stroke-linejoin="round"/>
<path d="M221.607 58.5535L235.417 55.6582" stroke="black" stroke-width="1.18473" stroke-miterlimit="10" stroke-linecap="round" stroke-linejoin="round"/>
<path d="M134.117 76.9007L147.927 74.0054" stroke="black" stroke-width="1.18473" stroke-miterlimit="10" stroke-linecap="round" stroke-linejoin="round"/>
<path d="M192.406 103.533L195.274 117.493" stroke="black" stroke-width="1.18473" stroke-miterlimit="10" stroke-linecap="round" stroke-linejoin="round"/>
<path d="M174.261 15.0664L177.128 29.0267" stroke="black" stroke-width="1.18473" stroke-miterlimit="10" stroke-linecap="round" stroke-linejoin="round"/>
<path d="M221.847 72.7134L235.749 75.1276" stroke="black" stroke-width="1.18473" stroke-miterlimit="10" stroke-linecap="round" stroke-linejoin="round"/>
<path d="M133.785 57.4375L147.682 59.8473" stroke="black" stroke-width="1.18473" stroke-miterlimit="10" stroke-linecap="round" stroke-linejoin="round"/>
<path d="M178.403 103.776L176.02 117.834" stroke="black" stroke-width="1.18473" stroke-miterlimit="10" stroke-linecap="round" stroke-linejoin="round"/>
<path d="M193.514 14.7271L191.131 28.7844" stroke="black" stroke-width="1.18473" stroke-miterlimit="10" stroke-linecap="round" stroke-linejoin="round"/>
<path d="M205.338 34.4286L213.051 22.4854" stroke="black" stroke-width="1.18473" stroke-miterlimit="10" stroke-linecap="round" stroke-linejoin="round"/>
<path d="M156.482 110.073L164.195 98.1299" stroke="black" stroke-width="1.18473" stroke-miterlimit="10" stroke-linecap="round" stroke-linejoin="round"/>
<path d="M216.268 87.0825L228.075 94.8769" stroke="black" stroke-width="1.18473" stroke-miterlimit="10" stroke-linecap="round" stroke-linejoin="round"/>
<path d="M141.458 37.6807L153.265 45.4751" stroke="black" stroke-width="1.18473" stroke-miterlimit="10" stroke-linecap="round" stroke-linejoin="round"/>
</svg>
