<svg width="19" height="20" viewBox="0 0 19 20" fill="none" xmlns="http://www.w3.org/2000/svg">
<path d="M17.8125 13.0625L13.4156 11.1665C13.1888 11.0637 12.9397 11.0211 12.692 11.0426C12.4443 11.0642 12.2062 11.1492 12 11.2898L9.64688 12.8729C8.21273 12.1685 7.05158 11.0011 6.34688 9.55499L7.90313 7.14717C8.04116 6.9385 8.12547 6.69827 8.14839 6.4483C8.17131 6.19832 8.13212 5.94652 8.03438 5.71574L6.15 1.2698C6.01851 0.969592 5.79586 0.719542 5.51435 0.55591C5.23284 0.392278 4.90711 0.323572 4.58438 0.359755C3.31837 0.527453 2.15566 1.15431 1.31243 2.12378C0.469194 3.09325 0.00281471 4.33936 0 5.63043C0 13.1572 6.05625 19.2811 13.5 19.2811C14.7768 19.2782 16.0092 18.8067 16.9679 17.954C17.9267 17.1014 18.5467 15.9257 18.7125 14.6455C18.7483 14.3192 18.6803 13.9898 18.5185 13.7052C18.3567 13.4205 18.1094 13.1954 17.8125 13.0625Z" fill="#7A78E8"/>
</svg>
