<svg width="24" height="24" viewBox="0 0 24 24" fill="none" xmlns="http://www.w3.org/2000/svg">
<path fill-rule="evenodd" clip-rule="evenodd" d="M2 8.5C2 7.57174 2.36875 6.6815 3.02513 6.02513C3.6815 5.36875 4.57174 5 5.5 5H19.5C20.4283 5 21.3185 5.36875 21.9749 6.02513C22.6313 6.6815 23 7.57174 23 8.5V15.5C23 16.4283 22.6313 17.3185 21.9749 17.9749C21.3185 18.6313 20.4283 19 19.5 19H5.5C4.57174 19 3.6815 18.6313 3.02513 17.9749C2.36875 17.3185 2 16.4283 2 15.5V8.5ZM12.5 15.5C13.4283 15.5 14.3185 15.1313 14.9749 14.4749C15.6313 13.8185 16 12.9283 16 12C16 11.0717 15.6313 10.1815 14.9749 9.52513C14.3185 8.86875 13.4283 8.5 12.5 8.5C11.5717 8.5 10.6815 8.86875 10.0251 9.52513C9.36875 10.1815 9 11.0717 9 12C9 12.9283 9.36875 13.8185 10.0251 14.4749C10.6815 15.1313 11.5717 15.5 12.5 15.5Z" fill="#6672F2"/>
</svg>
