<svg width="24" height="24" viewBox="0 0 24 24" fill="none" xmlns="http://www.w3.org/2000/svg">
<path d="M8 10.6C8 9.91044 8.27393 9.24912 8.76152 8.76152C9.24912 8.27393 9.91044 8 10.6 8H18.4C19.0896 8 19.7509 8.27393 20.2385 8.76152C20.7261 9.24912 21 9.91044 21 10.6V18.4C21 19.0896 20.7261 19.7509 20.2385 20.2385C19.7509 20.7261 19.0896 21 18.4 21H10.6C9.91044 21 9.24912 20.7261 8.76152 20.2385C8.27393 19.7509 8 19.0896 8 18.4V10.6Z" fill="#6672F2"/>
<path d="M5.6 3C4.91044 3 4.24912 3.27393 3.76152 3.76152C3.27393 4.24912 3 4.91044 3 5.6V13.4C3 14.0896 3.27393 14.7509 3.76152 15.2385C4.24912 15.7261 4.91044 16 5.6 16V5.6H16C16 4.91044 15.7261 4.24912 15.2385 3.76152C14.7509 3.27393 14.0896 3 13.4 3H5.6Z" fill="#6672F2"/>
</svg>
