<svg width="73" height="73" viewBox="0 0 73 73" fill="none" xmlns="http://www.w3.org/2000/svg">
<path d="M52.5374 38.9092C53.6429 29.7785 47.1372 21.4805 38.0065 20.375C28.8758 19.2695 20.5778 25.7753 19.4723 34.9059C18.3669 44.0366 24.8726 52.3346 34.0033 53.4401C43.1339 54.5456 51.432 48.0399 52.5374 38.9092Z" fill="#333333" stroke="#333333" stroke-width="0.6606" stroke-miterlimit="10" stroke-linecap="round" stroke-linejoin="round"/>
<path d="M36.0013 23.3545C35.2931 23.3545 34.597 23.4105 33.918 23.5151C38.6859 24.5179 42.3367 30.1352 42.3367 36.9159C42.3367 43.6967 38.6859 49.314 33.918 50.3168C34.597 50.4214 35.2931 50.4774 36.0013 50.4774C43.4903 50.4774 49.5604 44.4074 49.5604 36.9184C49.5604 29.427 43.4903 23.3545 36.0013 23.3545Z" fill="white" stroke="white" stroke-width="0.6606" stroke-miterlimit="10" stroke-linecap="round" stroke-linejoin="round"/>
<path d="M36.002 15.9358V0.916504" stroke="#333333" stroke-width="0.6606" stroke-miterlimit="10" stroke-linecap="round" stroke-linejoin="round"/>
<path d="M36.002 72.9124V57.8931" stroke="#333333" stroke-width="0.6606" stroke-miterlimit="10" stroke-linecap="round" stroke-linejoin="round"/>
<path d="M56.9805 36.916H71.9998" stroke="#333333" stroke-width="0.6606" stroke-miterlimit="10" stroke-linecap="round" stroke-linejoin="round"/>
<path d="M0.00195312 36.916H15.0213" stroke="#333333" stroke-width="0.6606" stroke-miterlimit="10" stroke-linecap="round" stroke-linejoin="round"/>
<path d="M50.8359 22.0818L61.4573 11.4604" stroke="#333333" stroke-width="0.6606" stroke-miterlimit="10" stroke-linecap="round" stroke-linejoin="round"/>
<path d="M10.5449 62.3699L21.1663 51.751" stroke="#333333" stroke-width="0.6606" stroke-miterlimit="10" stroke-linecap="round" stroke-linejoin="round"/>
<path d="M50.8359 51.751L61.4573 62.3699" stroke="#333333" stroke-width="0.6606" stroke-miterlimit="10" stroke-linecap="round" stroke-linejoin="round"/>
<path d="M10.5449 11.4604L21.1663 22.0818" stroke="#333333" stroke-width="0.6606" stroke-miterlimit="10" stroke-linecap="round" stroke-linejoin="round"/>
<path d="M43.834 17.4519L49.4392 3.51807" stroke="#333333" stroke-width="0.6606" stroke-miterlimit="10" stroke-linecap="round" stroke-linejoin="round"/>
<path d="M22.5605 70.3103L28.1681 56.3765" stroke="#333333" stroke-width="0.6606" stroke-miterlimit="10" stroke-linecap="round" stroke-linejoin="round"/>
<path d="M55.4648 44.7451L69.3987 50.3527" stroke="#333333" stroke-width="0.6606" stroke-miterlimit="10" stroke-linecap="round" stroke-linejoin="round"/>
<path d="M2.60352 23.4756L16.5374 29.0832" stroke="#333333" stroke-width="0.6606" stroke-miterlimit="10" stroke-linecap="round" stroke-linejoin="round"/>
<path d="M55.3008 28.6888L69.1178 22.8013" stroke="#333333" stroke-width="0.6606" stroke-miterlimit="10" stroke-linecap="round" stroke-linejoin="round"/>
<path d="M2.88281 51.0267L16.6998 45.1392" stroke="#333333" stroke-width="0.6606" stroke-miterlimit="10" stroke-linecap="round" stroke-linejoin="round"/>
<path d="M44.2246 56.2124L50.1121 70.0294" stroke="#333333" stroke-width="0.6606" stroke-miterlimit="10" stroke-linecap="round" stroke-linejoin="round"/>
<path d="M21.8887 3.79736L27.7762 17.6144" stroke="#333333" stroke-width="0.6606" stroke-miterlimit="10" stroke-linecap="round" stroke-linejoin="round"/>
<path d="M53.1309 24.8018L59.5514 20.2603" stroke="#333333" stroke-width="0.6606" stroke-miterlimit="10" stroke-linecap="round" stroke-linejoin="round"/>
<path d="M12.4512 53.5675L18.8717 49.0259" stroke="#333333" stroke-width="0.6606" stroke-miterlimit="10" stroke-linecap="round" stroke-linejoin="round"/>
<path d="M48.1152 54.0425L52.6544 60.4654" stroke="#333333" stroke-width="0.6606" stroke-miterlimit="10" stroke-linecap="round" stroke-linejoin="round"/>
<path d="M19.3496 13.3628L23.8887 19.7857" stroke="#333333" stroke-width="0.6606" stroke-miterlimit="10" stroke-linecap="round" stroke-linejoin="round"/>
<path d="M56.543 32.6547L64.2437 31.0581" stroke="#333333" stroke-width="0.6606" stroke-miterlimit="10" stroke-linecap="round" stroke-linejoin="round"/>
<path d="M7.75781 42.7719L15.4585 41.1753" stroke="#333333" stroke-width="0.6606" stroke-miterlimit="10" stroke-linecap="round" stroke-linejoin="round"/>
<path d="M40.2598 57.458L41.8588 65.1563" stroke="#333333" stroke-width="0.6606" stroke-miterlimit="10" stroke-linecap="round" stroke-linejoin="round"/>
<path d="M30.1426 8.67383L31.7416 16.3721" stroke="#333333" stroke-width="0.6606" stroke-miterlimit="10" stroke-linecap="round" stroke-linejoin="round"/>
<path d="M56.6777 40.4619L64.4296 41.7932" stroke="#333333" stroke-width="0.6606" stroke-miterlimit="10" stroke-linecap="round" stroke-linejoin="round"/>
<path d="M7.57422 32.0386L15.3236 33.3675" stroke="#333333" stroke-width="0.6606" stroke-miterlimit="10" stroke-linecap="round" stroke-linejoin="round"/>
<path d="M32.4539 57.5913L31.125 65.3431" stroke="#333333" stroke-width="0.6606" stroke-miterlimit="10" stroke-linecap="round" stroke-linejoin="round"/>
<path d="M40.8797 8.48584L39.5508 16.2377" stroke="#333333" stroke-width="0.6606" stroke-miterlimit="10" stroke-linecap="round" stroke-linejoin="round"/>
<path d="M47.4707 19.3507L51.7713 12.7646" stroke="#333333" stroke-width="0.6606" stroke-miterlimit="10" stroke-linecap="round" stroke-linejoin="round"/>
<path d="M20.2285 61.0645L24.5291 54.4785" stroke="#333333" stroke-width="0.6606" stroke-miterlimit="10" stroke-linecap="round" stroke-linejoin="round"/>
<path d="M53.5645 48.3862L60.148 52.6844" stroke="#333333" stroke-width="0.6606" stroke-miterlimit="10" stroke-linecap="round" stroke-linejoin="round"/>
<path d="M11.8516 21.1445L18.4351 25.4427" stroke="#333333" stroke-width="0.6606" stroke-miterlimit="10" stroke-linecap="round" stroke-linejoin="round"/>
</svg>
